<svg xmlns="http://www.w3.org/2000/svg" viewBox="0 0 415.29 177.16"><defs><style>.cls-1{isolation:isolate;}.cls-2{fill:#ba4748;}.cls-3{fill:#fff;}.cls-4{fill:none;stroke:#fff;stroke-width:0.56px;}.cls-5{fill:#c05050;}</style></defs><g id="Layer_2" data-name="Layer 2"><g id="Courtney_Lee" data-name="Courtney Lee" class="cls-1"><g class="cls-1"><path class="cls-2" d="M164.5,101.15A11.6,11.6,0,0,1,160,96.83a12.62,12.62,0,0,1,0-12.37,11.47,11.47,0,0,1,4.48-4.31,13.09,13.09,0,0,1,6.41-1.57,13.28,13.28,0,0,1,5.05.93,10.39,10.39,0,0,1,3.91,2.74l-2.19,2.13a8.77,8.77,0,0,0-6.64-2.8,9.59,9.59,0,0,0-4.75,1.18A8.57,8.57,0,0,0,163,86a9.55,9.55,0,0,0,0,9.27,8.5,8.5,0,0,0,3.32,3.25,9.59,9.59,0,0,0,4.75,1.18,8.8,8.8,0,0,0,6.64-2.83L179.88,99a10.5,10.5,0,0,1-3.92,2.76,13.28,13.28,0,0,1-5.08.94A13,13,0,0,1,164.5,101.15Z"/><path class="cls-2" d="M186.36,101.47A8.46,8.46,0,0,1,183,98.21a9.8,9.8,0,0,1,0-9.4,8.41,8.41,0,0,1,3.32-3.24,10.41,10.41,0,0,1,9.55,0,8.43,8.43,0,0,1,3.3,3.24,9.8,9.8,0,0,1,0,9.4,8.48,8.48,0,0,1-3.3,3.26,10.25,10.25,0,0,1-9.55,0ZM194.23,99a5.58,5.58,0,0,0,2.14-2.22,7.39,7.39,0,0,0,0-6.57A5.49,5.49,0,0,0,194.23,88a6.49,6.49,0,0,0-6.17,0,5.6,5.6,0,0,0-2.16,2.21,7.22,7.22,0,0,0,0,6.57A5.7,5.7,0,0,0,188.06,99a6.35,6.35,0,0,0,6.17,0Z"/><path class="cls-2" d="M221.54,84.58v17.86h-3.06V99.75a6.52,6.52,0,0,1-2.58,2.14,8.14,8.14,0,0,1-3.49.76,7.78,7.78,0,0,1-5.63-2,7.68,7.68,0,0,1-2.05-5.81V84.58H208v9.91a5.57,5.57,0,0,0,1.25,3.93,4.68,4.68,0,0,0,3.57,1.33,5.36,5.36,0,0,0,4.05-1.55,6.14,6.14,0,0,0,1.48-4.38V84.58Z"/><path class="cls-2" d="M233.31,85.22a9,9,0,0,1,4-.81v3.14a4.88,4.88,0,0,0-.74,0,5.42,5.42,0,0,0-4.13,1.57,6.19,6.19,0,0,0-1.5,4.47v8.89h-3.24V84.58h3.1v3A5.61,5.61,0,0,1,233.31,85.22Z"/><path class="cls-2" d="M252.08,101.4a5,5,0,0,1-1.75.93,7.48,7.48,0,0,1-2.16.32A5.76,5.76,0,0,1,244,101.2a5.54,5.54,0,0,1-1.48-4.15V87.24h-3V84.58h3V80.67h3.24v3.91h5.12v2.66h-5.12v9.68a3.14,3.14,0,0,0,.72,2.22,2.68,2.68,0,0,0,2.07.78,3.87,3.87,0,0,0,2.53-.85Z"/><path class="cls-2" d="M270.94,86.38a7.75,7.75,0,0,1,2,5.78v10.28h-3.24V92.53a5.51,5.51,0,0,0-1.25-3.91,4.7,4.7,0,0,0-3.57-1.31,5.6,5.6,0,0,0-4.15,1.53,6,6,0,0,0-1.51,4.4v9.2H256V84.58h3.1v2.7a6.3,6.3,0,0,1,2.65-2.13,9.32,9.32,0,0,1,3.79-.74A7.4,7.4,0,0,1,270.94,86.38Z"/><path class="cls-2" d="M295.12,94.59H280.63a5.59,5.59,0,0,0,2.07,3.79,6.75,6.75,0,0,0,4.4,1.44,6.62,6.62,0,0,0,5.16-2.16l1.79,2.09a7.84,7.84,0,0,1-3,2.15,11.29,11.29,0,0,1-9-.42,8.3,8.3,0,0,1-3.39-3.25,9.28,9.28,0,0,1-1.2-4.72,9.4,9.4,0,0,1,1.17-4.68,8.29,8.29,0,0,1,3.2-3.26,9.17,9.17,0,0,1,4.6-1.16,9,9,0,0,1,4.57,1.16,8.19,8.19,0,0,1,3.13,3.26,9.82,9.82,0,0,1,1.13,4.78A8.11,8.11,0,0,1,295.12,94.59Zm-12.65-6a5.68,5.68,0,0,0-1.84,3.71h11.46a5.75,5.75,0,0,0-1.84-3.7,6,6,0,0,0-7.78,0Z"/><path class="cls-2" d="M315.15,84.58l-8.67,19.65a8.75,8.75,0,0,1-2.68,3.84,6.12,6.12,0,0,1-3.69,1.12,7.57,7.57,0,0,1-2.54-.43,5.21,5.21,0,0,1-2-1.23l1.38-2.42a4.53,4.53,0,0,0,3.2,1.31,3.09,3.09,0,0,0,2-.62,5.37,5.37,0,0,0,1.44-2.14l.57-1.25L296.2,84.58h3.37l6.24,14.29L312,84.58Z"/><path class="cls-2" d="M327.72,78.85h3.37V99.51h12.77v2.93H327.72Z"/><path class="cls-2" d="M363.11,94.59H348.62a5.59,5.59,0,0,0,2.07,3.79,6.75,6.75,0,0,0,4.4,1.44,6.65,6.65,0,0,0,5.16-2.16L362,99.75a7.76,7.76,0,0,1-3,2.15,10.36,10.36,0,0,1-4,.75,10.55,10.55,0,0,1-5-1.17,8.21,8.21,0,0,1-3.38-3.25,9.28,9.28,0,0,1-1.2-4.72,9.5,9.5,0,0,1,1.16-4.68,8.38,8.38,0,0,1,3.21-3.26,9.17,9.17,0,0,1,4.6-1.16,9,9,0,0,1,4.56,1.16,8.15,8.15,0,0,1,3.14,3.26,9.93,9.93,0,0,1,1.13,4.78A8.11,8.11,0,0,1,363.11,94.59Zm-12.66-6a5.72,5.72,0,0,0-1.83,3.71h11.46a5.8,5.8,0,0,0-1.84-3.7,6,6,0,0,0-7.79,0Z"/><path class="cls-2" d="M383.74,94.59h-14.5a5.64,5.64,0,0,0,2.08,3.79,6.73,6.73,0,0,0,4.4,1.44,6.61,6.61,0,0,0,5.15-2.16l1.79,2.09a7.76,7.76,0,0,1-3,2.15,10.36,10.36,0,0,1-4,.75,10.52,10.52,0,0,1-5-1.17,8.21,8.21,0,0,1-3.38-3.25,9.28,9.28,0,0,1-1.2-4.72,9.5,9.5,0,0,1,1.16-4.68,8.36,8.36,0,0,1,3.2-3.26A9.2,9.2,0,0,1,375,84.41a9,9,0,0,1,4.56,1.16,8.21,8.21,0,0,1,3.14,3.26,9.93,9.93,0,0,1,1.13,4.78C383.81,93.86,383.78,94.19,383.74,94.59Zm-12.66-6a5.73,5.73,0,0,0-1.84,3.71H380.7a5.79,5.79,0,0,0-1.83-3.7,6,6,0,0,0-7.79,0Z"/></g></g><g id="Courtney_Lee-2" data-name="Courtney Lee-2" class="cls-1"><g class="cls-1"><path class="cls-3" d="M161.13,98.9a11.58,11.58,0,0,1-4.47-4.31,12.62,12.62,0,0,1,0-12.37,11.49,11.49,0,0,1,4.48-4.32,14,14,0,0,1,11.46-.64A10.3,10.3,0,0,1,176.51,80l-2.19,2.12a8.8,8.8,0,0,0-6.64-2.8,9.7,9.7,0,0,0-4.75,1.18,8.53,8.53,0,0,0-3.32,3.26,9.53,9.53,0,0,0,0,9.26,8.53,8.53,0,0,0,3.32,3.26,9.7,9.7,0,0,0,4.75,1.18,8.84,8.84,0,0,0,6.64-2.83l2.19,2.12a10.5,10.5,0,0,1-3.92,2.76,13.28,13.28,0,0,1-5.08,1A13,13,0,0,1,161.13,98.9Z"/><path class="cls-3" d="M183,99.22A8.55,8.55,0,0,1,179.67,96a9.82,9.82,0,0,1,0-9.41A8.36,8.36,0,0,1,183,83.33a9.79,9.79,0,0,1,4.79-1.17,9.63,9.63,0,0,1,4.77,1.17,8.4,8.4,0,0,1,3.3,3.23,9.82,9.82,0,0,1,0,9.41,8.59,8.59,0,0,1-3.3,3.25,9.53,9.53,0,0,1-4.77,1.18A9.69,9.69,0,0,1,183,99.22Zm7.88-2.44A5.61,5.61,0,0,0,193,94.55,7.39,7.39,0,0,0,193,88a5.49,5.49,0,0,0-2.14-2.21,6.57,6.57,0,0,0-6.17,0A5.6,5.6,0,0,0,182.53,88a7.22,7.22,0,0,0,0,6.57,5.72,5.72,0,0,0,2.16,2.23,6.42,6.42,0,0,0,6.17,0Z"/><path class="cls-3" d="M218.17,82.33V100.2h-3.06V97.5a6.44,6.44,0,0,1-2.58,2.14,8,8,0,0,1-3.49.76,7.82,7.82,0,0,1-5.63-2,7.7,7.7,0,0,1-2.06-5.82V82.33h3.24v9.91a5.57,5.57,0,0,0,1.25,3.93,4.64,4.64,0,0,0,3.57,1.33A5.36,5.36,0,0,0,213.46,96a6.11,6.11,0,0,0,1.48-4.38V82.33Z"/><path class="cls-3" d="M229.94,83a9,9,0,0,1,4-.81V85.3a7.12,7.12,0,0,0-.74,0,5.45,5.45,0,0,0-4.13,1.56,6.23,6.23,0,0,0-1.5,4.47v8.9h-3.24V82.33h3.1v3A5.55,5.55,0,0,1,229.94,83Z"/><path class="cls-3" d="M248.71,99.15a4.65,4.65,0,0,1-1.75.93,7.48,7.48,0,0,1-2.16.32A5.71,5.71,0,0,1,240.62,99a5.54,5.54,0,0,1-1.48-4.15V85h-3V82.33h3V78.42h3.23v3.91h5.13V85h-5.13v9.67a3.12,3.12,0,0,0,.73,2.22,2.68,2.68,0,0,0,2.07.78,3.92,3.92,0,0,0,2.53-.84Z"/><path class="cls-3" d="M267.57,84.14a7.74,7.74,0,0,1,2,5.78V100.2h-3.24V90.29a5.48,5.48,0,0,0-1.25-3.91,4.67,4.67,0,0,0-3.57-1.32,5.55,5.55,0,0,0-4.15,1.54A6,6,0,0,0,255.86,91v9.21h-3.24V82.33h3.1V85a6.28,6.28,0,0,1,2.65-2.12,9.12,9.12,0,0,1,3.79-.75A7.37,7.37,0,0,1,267.57,84.14Z"/><path class="cls-3" d="M291.75,92.34H277.26a5.61,5.61,0,0,0,2.07,3.8,6.8,6.8,0,0,0,4.4,1.43,6.62,6.62,0,0,0,5.16-2.16l1.79,2.09a7.86,7.86,0,0,1-3,2.16,11.4,11.4,0,0,1-9.05-.42A8.32,8.32,0,0,1,275.22,96a9.28,9.28,0,0,1-1.2-4.72,9.4,9.4,0,0,1,1.17-4.68,8.27,8.27,0,0,1,3.2-3.25,9.07,9.07,0,0,1,4.6-1.17,8.91,8.91,0,0,1,4.57,1.17,8.16,8.16,0,0,1,3.13,3.25,9.94,9.94,0,0,1,1.13,4.79A8.1,8.1,0,0,1,291.75,92.34Zm-12.65-6A5.68,5.68,0,0,0,277.26,90h11.46a5.7,5.7,0,0,0-1.84-3.69A5.52,5.52,0,0,0,283,84.89,5.6,5.6,0,0,0,279.1,86.31Z"/><path class="cls-3" d="M311.78,82.33,303.11,102a8.85,8.85,0,0,1-2.68,3.85,6.11,6.11,0,0,1-3.69,1.11,7.82,7.82,0,0,1-2.54-.42,5.21,5.21,0,0,1-2-1.23l1.38-2.43a4.48,4.48,0,0,0,3.2,1.31,3,3,0,0,0,2-.62,5.37,5.37,0,0,0,1.44-2.14l.57-1.25-7.89-17.83h3.37l6.24,14.29,6.17-14.29Z"/><path class="cls-3" d="M324.35,76.6h3.37V97.26h12.77v2.94H324.35Z"/><path class="cls-3" d="M359.74,92.34H345.25a5.61,5.61,0,0,0,2.07,3.8,6.78,6.78,0,0,0,4.4,1.43,6.61,6.61,0,0,0,5.15-2.16l1.79,2.09a7.79,7.79,0,0,1-3,2.16,11.4,11.4,0,0,1-9.05-.42A8.24,8.24,0,0,1,343.21,96a9.28,9.28,0,0,1-1.2-4.72,9.5,9.5,0,0,1,1.16-4.68,8.36,8.36,0,0,1,3.21-3.25,9,9,0,0,1,4.6-1.17,8.87,8.87,0,0,1,4.56,1.17,8.19,8.19,0,0,1,3.14,3.25,9.94,9.94,0,0,1,1.13,4.79C359.81,91.61,359.78,91.94,359.74,92.34Zm-12.66-6A5.72,5.72,0,0,0,345.25,90h11.46a5.75,5.75,0,0,0-1.84-3.69A5.54,5.54,0,0,0,351,84.89,5.64,5.64,0,0,0,347.08,86.31Z"/><path class="cls-3" d="M380.37,92.34h-14.5a5.66,5.66,0,0,0,2.08,3.8,6.78,6.78,0,0,0,4.4,1.43,6.61,6.61,0,0,0,5.15-2.16l1.79,2.09a7.86,7.86,0,0,1-3,2.16,11.4,11.4,0,0,1-9-.42A8.24,8.24,0,0,1,363.84,96a9.28,9.28,0,0,1-1.2-4.72,9.5,9.5,0,0,1,1.16-4.68,8.33,8.33,0,0,1,3.2-3.25,9.1,9.1,0,0,1,4.6-1.17,8.91,8.91,0,0,1,4.57,1.17,8.19,8.19,0,0,1,3.14,3.25,9.94,9.94,0,0,1,1.13,4.79C380.44,91.61,380.41,91.94,380.37,92.34Zm-12.66-6A5.73,5.73,0,0,0,365.87,90h11.46a5.74,5.74,0,0,0-1.83-3.69,6,6,0,0,0-7.79,0Z"/></g><g class="cls-1"><path class="cls-4" d="M161.13,98.9a11.58,11.58,0,0,1-4.47-4.31,12.62,12.62,0,0,1,0-12.37,11.49,11.49,0,0,1,4.48-4.32,14,14,0,0,1,11.46-.64A10.3,10.3,0,0,1,176.51,80l-2.19,2.12a8.8,8.8,0,0,0-6.64-2.8,9.7,9.7,0,0,0-4.75,1.18,8.53,8.53,0,0,0-3.32,3.26,9.53,9.53,0,0,0,0,9.26,8.53,8.53,0,0,0,3.32,3.26,9.7,9.7,0,0,0,4.75,1.18,8.84,8.84,0,0,0,6.64-2.83l2.19,2.12a10.5,10.5,0,0,1-3.92,2.76,13.28,13.28,0,0,1-5.08,1A13,13,0,0,1,161.13,98.9Z"/><path class="cls-4" d="M183,99.22A8.55,8.55,0,0,1,179.67,96a9.82,9.82,0,0,1,0-9.41A8.36,8.36,0,0,1,183,83.33a9.79,9.79,0,0,1,4.79-1.17,9.63,9.63,0,0,1,4.77,1.17,8.4,8.4,0,0,1,3.3,3.23,9.82,9.82,0,0,1,0,9.41,8.59,8.59,0,0,1-3.3,3.25,9.53,9.53,0,0,1-4.77,1.18A9.69,9.69,0,0,1,183,99.22Zm7.88-2.44A5.61,5.61,0,0,0,193,94.55,7.39,7.39,0,0,0,193,88a5.49,5.49,0,0,0-2.14-2.21,6.57,6.57,0,0,0-6.17,0A5.6,5.6,0,0,0,182.53,88a7.22,7.22,0,0,0,0,6.57,5.72,5.72,0,0,0,2.16,2.23,6.42,6.42,0,0,0,6.17,0Z"/><path class="cls-4" d="M218.17,82.33V100.2h-3.06V97.5a6.44,6.44,0,0,1-2.58,2.14,8,8,0,0,1-3.49.76,7.82,7.82,0,0,1-5.63-2,7.7,7.7,0,0,1-2.06-5.82V82.33h3.24v9.91a5.57,5.57,0,0,0,1.25,3.93,4.64,4.64,0,0,0,3.57,1.33A5.36,5.36,0,0,0,213.46,96a6.11,6.11,0,0,0,1.48-4.38V82.33Z"/><path class="cls-4" d="M229.94,83a9,9,0,0,1,4-.81V85.3a7.12,7.12,0,0,0-.74,0,5.45,5.45,0,0,0-4.13,1.56,6.23,6.23,0,0,0-1.5,4.47v8.9h-3.24V82.33h3.1v3A5.55,5.55,0,0,1,229.94,83Z"/><path class="cls-4" d="M248.71,99.15a4.65,4.65,0,0,1-1.75.93,7.48,7.48,0,0,1-2.16.32A5.71,5.71,0,0,1,240.62,99a5.54,5.54,0,0,1-1.48-4.15V85h-3V82.33h3V78.42h3.23v3.91h5.13V85h-5.13v9.67a3.12,3.12,0,0,0,.73,2.22,2.68,2.68,0,0,0,2.07.78,3.92,3.92,0,0,0,2.53-.84Z"/><path class="cls-4" d="M267.57,84.14a7.74,7.74,0,0,1,2,5.78V100.2h-3.24V90.29a5.48,5.48,0,0,0-1.25-3.91,4.67,4.67,0,0,0-3.57-1.32,5.55,5.55,0,0,0-4.15,1.54A6,6,0,0,0,255.86,91v9.21h-3.24V82.33h3.1V85a6.28,6.28,0,0,1,2.65-2.12,9.12,9.12,0,0,1,3.79-.75A7.37,7.37,0,0,1,267.57,84.14Z"/><path class="cls-4" d="M291.75,92.34H277.26a5.61,5.61,0,0,0,2.07,3.8,6.8,6.8,0,0,0,4.4,1.43,6.62,6.62,0,0,0,5.16-2.16l1.79,2.09a7.86,7.86,0,0,1-3,2.16,11.4,11.4,0,0,1-9.05-.42A8.32,8.32,0,0,1,275.22,96a9.28,9.28,0,0,1-1.2-4.72,9.4,9.4,0,0,1,1.17-4.68,8.27,8.27,0,0,1,3.2-3.25,9.07,9.07,0,0,1,4.6-1.17,8.91,8.91,0,0,1,4.57,1.17,8.16,8.16,0,0,1,3.13,3.25,9.94,9.94,0,0,1,1.13,4.79A8.1,8.1,0,0,1,291.75,92.34Zm-12.65-6A5.68,5.68,0,0,0,277.26,90h11.46a5.7,5.7,0,0,0-1.84-3.69A5.52,5.52,0,0,0,283,84.89,5.6,5.6,0,0,0,279.1,86.31Z"/><path class="cls-4" d="M311.78,82.33,303.11,102a8.85,8.85,0,0,1-2.68,3.85,6.11,6.11,0,0,1-3.69,1.11,7.82,7.82,0,0,1-2.54-.42,5.21,5.21,0,0,1-2-1.23l1.38-2.43a4.48,4.48,0,0,0,3.2,1.31,3,3,0,0,0,2-.62,5.37,5.37,0,0,0,1.44-2.14l.57-1.25-7.89-17.83h3.37l6.24,14.29,6.17-14.29Z"/><path class="cls-4" d="M324.35,76.6h3.37V97.26h12.77v2.94H324.35Z"/><path class="cls-4" d="M359.74,92.34H345.25a5.61,5.61,0,0,0,2.07,3.8,6.78,6.78,0,0,0,4.4,1.43,6.61,6.61,0,0,0,5.15-2.16l1.79,2.09a7.79,7.79,0,0,1-3,2.16,11.4,11.4,0,0,1-9.05-.42A8.24,8.24,0,0,1,343.21,96a9.28,9.28,0,0,1-1.2-4.72,9.5,9.5,0,0,1,1.16-4.68,8.36,8.36,0,0,1,3.21-3.25,9,9,0,0,1,4.6-1.17,8.87,8.87,0,0,1,4.56,1.17,8.19,8.19,0,0,1,3.14,3.25,9.94,9.94,0,0,1,1.13,4.79C359.81,91.61,359.78,91.94,359.74,92.34Zm-12.66-6A5.72,5.72,0,0,0,345.25,90h11.46a5.75,5.75,0,0,0-1.84-3.69A5.54,5.54,0,0,0,351,84.89,5.64,5.64,0,0,0,347.08,86.31Z"/><path class="cls-4" d="M380.37,92.34h-14.5a5.66,5.66,0,0,0,2.08,3.8,6.78,6.78,0,0,0,4.4,1.43,6.61,6.61,0,0,0,5.15-2.16l1.79,2.09a7.86,7.86,0,0,1-3,2.16,11.4,11.4,0,0,1-9-.42A8.24,8.24,0,0,1,363.84,96a9.28,9.28,0,0,1-1.2-4.72,9.5,9.5,0,0,1,1.16-4.68,8.33,8.33,0,0,1,3.2-3.25,9.1,9.1,0,0,1,4.6-1.17,8.91,8.91,0,0,1,4.57,1.17,8.19,8.19,0,0,1,3.14,3.25,9.94,9.94,0,0,1,1.13,4.79C380.44,91.61,380.41,91.94,380.37,92.34Zm-12.66-6A5.73,5.73,0,0,0,365.87,90h11.46a5.74,5.74,0,0,0-1.83-3.69,6,6,0,0,0-7.79,0Z"/></g></g><path class="cls-5" d="M110.25,131a40.18,40.18,0,1,1,10.23-79.21c1.24.3,2.47.67,3.68,1.09.76.26,2.42.44,2.74,1.33s-.45,1.55-.81,2.14a23.9,23.9,0,0,0-1.2,2.62,9.11,9.11,0,0,1-.87,2.18c-.72.91-1.76-.15-2.56-.43a31.88,31.88,0,1,0-.87,60.52c3-1,5.79-2.74,8.57-4.27a.6.6,0,0,1,.31-.1.54.54,0,0,1,.32.23c1,1.17,1.86,2.42,2.8,3.64.52.69,1.78,1.86,1.68,2.82-.14,1.24-4.79,2.82-5.79,3.28a45.84,45.84,0,0,1-5.14,2.23A40.37,40.37,0,0,1,110.25,131Z"/><rect class="cls-5" x="65.83" y="111.76" width="2.3" height="12.95" rx="0.96" transform="translate(124.76 -4.76) rotate(54.69)"/><rect class="cls-5" x="70.12" y="51.82" width="2.3" height="12.95" rx="0.96" transform="translate(158.91 30.05) rotate(122.85)"/><rect class="cls-5" x="95.96" y="36.47" width="2.3" height="12.95" rx="0.96" transform="translate(203.26 45.69) rotate(157.63)"/><rect class="cls-5" x="126.91" y="36.47" width="2.3" height="12.95" rx="1.15" transform="translate(231.82 129.42) rotate(-158.73)"/><path class="cls-5" d="M122.18,109.35c-.32-.49-.85-.48-1.47-.5-.4,0-.9,0-1.29.06L118,109l-4.22.21-4.91.23-4.17.2-1.66.08L120.24,65.4a1.51,1.51,0,0,0-.85-1.7,1.46,1.46,0,0,0-1.76.6l-17.61,46a1.14,1.14,0,0,0,0,.73s0,.09,0,.14a1.31,1.31,0,0,0,1.37,1.24l1.26-.06,3.2-.16L110,112l4.31-.21c1.12-.06,2.24-.14,3.37-.19.76,0,1.66,0,2.4,0s1.67.12,2.1-.73A1.23,1.23,0,0,0,122.18,109.35Z"/><rect class="cls-5" x="89.65" y="131" width="2.3" height="12.95" rx="1.15" transform="translate(125.53 298.52) rotate(-158.73)"/><rect class="cls-5" x="127.68" y="132.16" width="2.3" height="12.95" rx="0.96" transform="translate(-43.07 59.47) rotate(-22.37)"/><rect class="cls-5" x="58.55" y="83.17" width="2.3" height="12.95" rx="0.96" transform="translate(149.34 29.95) rotate(90)"/><path class="cls-3" d="M118.45,106.09c-.31-.5-.85-.49-1.47-.5-.39,0-.9,0-1.28,0l-1.4.07-4.23.2-4.91.24-4.17.2-1.65.08,17.17-44.3a1.5,1.5,0,0,0-.85-1.7,1.45,1.45,0,0,0-1.76.61L96.29,107a1.18,1.18,0,0,0,0,.72c0,.05,0,.09,0,.14a1.31,1.31,0,0,0,1.37,1.24l1.27-.06,3.19-.15,4.21-.2,4.31-.21,3.37-.2c.77,0,1.66,0,2.41,0s1.67.12,2.09-.73A1.2,1.2,0,0,0,118.45,106.09Z"/><rect class="cls-3" x="92.24" y="33.2" width="2.3" height="12.95" rx="0.96" transform="translate(194.85 40.83) rotate(157.63)"/><rect class="cls-3" x="123.19" y="33.2" width="2.3" height="12.95" rx="1.15" transform="translate(225.81 121.76) rotate(-158.73)"/><rect class="cls-3" x="123.96" y="128.89" width="2.3" height="12.95" rx="0.96" transform="translate(-42.11 57.81) rotate(-22.37)"/><rect class="cls-3" x="85.92" y="127.73" width="2.3" height="12.95" rx="1.15" transform="translate(119.51 290.86) rotate(-158.73)"/><rect class="cls-3" x="62.11" y="108.49" width="2.3" height="12.95" rx="0.96" transform="translate(120.52 -3.1) rotate(54.69)"/><rect class="cls-3" x="66.39" y="48.55" width="2.3" height="12.95" rx="0.96" transform="translate(150.41 28.14) rotate(122.85)"/><path class="cls-3" d="M106.52,127.71a40.18,40.18,0,1,1,2.75-80.3,41.11,41.11,0,0,1,7.49,1.08c1.24.31,2.46.67,3.67,1.09.76.27,2.43.44,2.74,1.34s-.44,1.54-.8,2.14a22,22,0,0,0-1.2,2.61,9.47,9.47,0,0,1-.88,2.19c-.71.9-1.75-.16-2.56-.44a31.89,31.89,0,1,0-11.07,62,32.12,32.12,0,0,0,10.21-1.47c3-1,5.78-2.74,8.56-4.27a.54.54,0,0,1,.32-.09.51.51,0,0,1,.32.23c1,1.17,1.86,2.42,2.79,3.63.53.69,1.79,1.86,1.68,2.82-.14,1.25-4.79,2.83-5.79,3.29a47.69,47.69,0,0,1-5.14,2.22A40.38,40.38,0,0,1,106.52,127.71Z"/><rect class="cls-3" x="54.82" y="79.9" width="2.3" height="12.95" rx="0.96" transform="translate(142.35 30.41) rotate(90)"/></g></svg>