<svg xmlns="http://www.w3.org/2000/svg" viewBox="0 0 415.29 177.16"><defs><style>.cls-1{isolation:isolate;}.cls-2{fill:#ba4748;}.cls-3{fill:#fff;}.cls-4{fill:none;stroke:#fff;stroke-width:0.62px;}.cls-5{fill:#c05050;}</style></defs><g id="Layer_2" data-name="Layer 2"><g id="Courtney_Lee" data-name="Courtney Lee" class="cls-1"><g class="cls-1"><path class="cls-2" d="M165.41,100.37a12.76,12.76,0,0,1-4.9-4.74,13.89,13.89,0,0,1,0-13.57,12.65,12.65,0,0,1,4.92-4.73,14.38,14.38,0,0,1,7-1.72,14.66,14.66,0,0,1,5.55,1,11.37,11.37,0,0,1,4.29,3L179.89,82a9.62,9.62,0,0,0-7.28-3.07,10.6,10.6,0,0,0-5.22,1.29,9.53,9.53,0,0,0-3.64,3.57,10.52,10.52,0,0,0,0,10.17,9.39,9.39,0,0,0,3.64,3.57,10.6,10.6,0,0,0,5.22,1.29,9.65,9.65,0,0,0,7.28-3.1L182.3,98a11.56,11.56,0,0,1-4.31,3,14.61,14.61,0,0,1-5.57,1A14.38,14.38,0,0,1,165.41,100.37Z"/><path class="cls-2" d="M189.4,100.72a9.49,9.49,0,0,1-3.65-3.57,10.82,10.82,0,0,1,0-10.32,9.3,9.3,0,0,1,3.65-3.55,11.45,11.45,0,0,1,10.48,0,9.29,9.29,0,0,1,3.62,3.55,10.75,10.75,0,0,1,0,10.32,9.48,9.48,0,0,1-3.62,3.57,11.29,11.29,0,0,1-10.48,0ZM198,98a6.2,6.2,0,0,0,2.35-2.44,8.09,8.09,0,0,0,0-7.22A6.08,6.08,0,0,0,198,86a7.17,7.17,0,0,0-6.77,0,6.24,6.24,0,0,0-2.36,2.42,7.92,7.92,0,0,0,0,7.22A6.37,6.37,0,0,0,191.26,98,7,7,0,0,0,198,98Z"/><path class="cls-2" d="M228,82.19v19.6h-3.36v-3a7.24,7.24,0,0,1-2.83,2.35A8.9,8.9,0,0,1,218,102a8.54,8.54,0,0,1-6.17-2.16q-2.26-2.16-2.26-6.38V82.19h3.55V93.06a6.09,6.09,0,0,0,1.37,4.31,5.12,5.12,0,0,0,3.92,1.46,5.85,5.85,0,0,0,4.44-1.7,6.7,6.7,0,0,0,1.62-4.81V82.19Z"/><path class="cls-2" d="M240.91,82.89a10,10,0,0,1,4.4-.88v3.44a5.86,5.86,0,0,0-.81,0A5.94,5.94,0,0,0,240,87.13a6.79,6.79,0,0,0-1.65,4.9v9.76h-3.55V82.19h3.4v3.29A6.14,6.14,0,0,1,240.91,82.89Z"/><path class="cls-2" d="M261.51,100.64a5.15,5.15,0,0,1-1.93,1,8.12,8.12,0,0,1-2.36.35,6.29,6.29,0,0,1-4.59-1.59A6.08,6.08,0,0,1,251,95.87V85.11h-3.32V82.19H251V77.9h3.55v4.29h5.62v2.92h-5.62V95.73a3.45,3.45,0,0,0,.8,2.44,3,3,0,0,0,2.27.85,4.28,4.28,0,0,0,2.78-.93Z"/><path class="cls-2" d="M282.2,84.17c1.46,1.44,2.2,3.56,2.2,6.34v11.28h-3.55V90.92a6,6,0,0,0-1.37-4.29,5.15,5.15,0,0,0-3.92-1.44A6.11,6.11,0,0,0,271,86.87a6.57,6.57,0,0,0-1.67,4.82v10.1h-3.55V82.19h3.41v3a6.85,6.85,0,0,1,2.9-2.33,10.19,10.19,0,0,1,4.16-.81A8.12,8.12,0,0,1,282.2,84.17Z"/><path class="cls-2" d="M308.73,93.17h-15.9a6.13,6.13,0,0,0,2.27,4.16,7.42,7.42,0,0,0,4.83,1.58,7.25,7.25,0,0,0,5.65-2.37l2,2.29a8.46,8.46,0,0,1-3.31,2.37,12.51,12.51,0,0,1-9.92-.46,9,9,0,0,1-3.72-3.57A10.2,10.2,0,0,1,289.28,92a10.39,10.39,0,0,1,1.27-5.14,9.09,9.09,0,0,1,3.52-3.57,10,10,0,0,1,5-1.27,9.77,9.77,0,0,1,5,1.27,8.89,8.89,0,0,1,3.44,3.57,10.83,10.83,0,0,1,1.24,5.25A9.74,9.74,0,0,1,308.73,93.17Zm-13.89-6.62a6.28,6.28,0,0,0-2,4.07H305.4a6.32,6.32,0,0,0-2-4.05A6.07,6.07,0,0,0,299.11,85,6.16,6.16,0,0,0,294.84,86.55Z"/><path class="cls-2" d="M330.69,82.19l-9.5,21.56a9.79,9.79,0,0,1-2.94,4.22,6.73,6.73,0,0,1-4.05,1.22,8.51,8.51,0,0,1-2.79-.47,5.54,5.54,0,0,1-2.24-1.35l1.52-2.66a4.94,4.94,0,0,0,3.51,1.44,3.42,3.42,0,0,0,2.16-.68,5.88,5.88,0,0,0,1.58-2.35l.62-1.37-8.65-19.56h3.7l6.84,15.68,6.77-15.68Z"/><path class="cls-2" d="M344.49,75.9h3.69V98.57h14v3.22H344.49Z"/><path class="cls-2" d="M383.32,93.17H367.41a6.14,6.14,0,0,0,2.28,4.16,7.4,7.4,0,0,0,4.82,1.58,7.26,7.26,0,0,0,5.66-2.37l2,2.29a8.53,8.53,0,0,1-3.31,2.37,12.53,12.53,0,0,1-9.93-.46,9.06,9.06,0,0,1-3.71-3.57A10.21,10.21,0,0,1,363.86,92a10.4,10.4,0,0,1,1.28-5.14,9.13,9.13,0,0,1,3.51-3.57A10,10,0,0,1,373.7,82a9.82,9.82,0,0,1,5,1.27,9,9,0,0,1,3.44,3.57,10.83,10.83,0,0,1,1.24,5.25C383.39,92.37,383.36,92.73,383.32,93.17Zm-13.89-6.62a6.29,6.29,0,0,0-2,4.07H380a6.32,6.32,0,0,0-2-4.05A6.07,6.07,0,0,0,373.7,85,6.16,6.16,0,0,0,369.43,86.55Z"/><path class="cls-2" d="M406,93.17h-15.9a6.13,6.13,0,0,0,2.27,4.16,7.4,7.4,0,0,0,4.83,1.58,7.25,7.25,0,0,0,5.65-2.37l2,2.29a8.46,8.46,0,0,1-3.31,2.37,12.53,12.53,0,0,1-9.93-.46,9.06,9.06,0,0,1-3.71-3.57A10.2,10.2,0,0,1,386.5,92a10.39,10.39,0,0,1,1.27-5.14,9.13,9.13,0,0,1,3.51-3.57A10,10,0,0,1,396.33,82a9.77,9.77,0,0,1,5,1.27,8.89,8.89,0,0,1,3.44,3.57A10.83,10.83,0,0,1,406,92.1,9.74,9.74,0,0,1,406,93.17Zm-13.89-6.62a6.24,6.24,0,0,0-2,4.07h12.57a6.32,6.32,0,0,0-2-4.05A6.07,6.07,0,0,0,396.33,85,6.16,6.16,0,0,0,392.06,86.55Z"/></g></g><g id="Courtney_Lee-2" data-name="Courtney Lee-2" class="cls-1"><g class="cls-1"><path class="cls-3" d="M161.72,97.9a12.6,12.6,0,0,1-4.9-4.73,13.82,13.82,0,0,1,0-13.57,12.61,12.61,0,0,1,4.92-4.74,14.42,14.42,0,0,1,7-1.72,14.66,14.66,0,0,1,5.55,1,11.48,11.48,0,0,1,4.29,3l-2.41,2.33a9.64,9.64,0,0,0-7.28-3.07,10.57,10.57,0,0,0-5.21,1.3,9.35,9.35,0,0,0-3.65,3.57,10.52,10.52,0,0,0,0,10.17A9.39,9.39,0,0,0,163.7,95a10.46,10.46,0,0,0,5.21,1.3,9.66,9.66,0,0,0,7.28-3.11l2.41,2.33a11.7,11.7,0,0,1-4.31,3,14.57,14.57,0,0,1-5.57,1A14.24,14.24,0,0,1,161.72,97.9Z"/><path class="cls-3" d="M185.7,98.25a9.32,9.32,0,0,1-3.64-3.57,10.73,10.73,0,0,1,0-10.31,9.21,9.21,0,0,1,3.64-3.55,11.37,11.37,0,0,1,10.48,0,9.31,9.31,0,0,1,3.63,3.55,10.8,10.8,0,0,1,0,10.31,9.43,9.43,0,0,1-3.63,3.57,11.21,11.21,0,0,1-10.48,0Zm8.63-2.68a6.14,6.14,0,0,0,2.35-2.44,8.07,8.07,0,0,0,0-7.21,6,6,0,0,0-2.35-2.42,7.15,7.15,0,0,0-6.76,0,6.07,6.07,0,0,0-2.37,2.42,7.9,7.9,0,0,0,0,7.21,6.25,6.25,0,0,0,2.37,2.44,7,7,0,0,0,6.76,0Z"/><path class="cls-3" d="M224.3,79.72v19.6h-3.36V96.37a7.13,7.13,0,0,1-2.83,2.34,8.77,8.77,0,0,1-3.83.84,8.55,8.55,0,0,1-6.17-2.17q-2.27-2.16-2.26-6.38V79.72h3.55V90.6a6.11,6.11,0,0,0,1.37,4.31,5.12,5.12,0,0,0,3.92,1.46,5.85,5.85,0,0,0,4.44-1.71,6.67,6.67,0,0,0,1.62-4.8V79.72Z"/><path class="cls-3" d="M237.21,80.43a10,10,0,0,1,4.4-.89V83a8,8,0,0,0-.81,0,6,6,0,0,0-4.53,1.72,6.8,6.8,0,0,0-1.65,4.9v9.76h-3.55V79.72h3.4V83A6,6,0,0,1,237.21,80.43Z"/><path class="cls-3" d="M257.81,98.18a5.28,5.28,0,0,1-1.93,1,7.81,7.81,0,0,1-2.36.36A6.31,6.31,0,0,1,248.93,98a6.09,6.09,0,0,1-1.62-4.55V82.65H244V79.72h3.33V75.44h3.55v4.28h5.62v2.93h-5.62V93.26a3.45,3.45,0,0,0,.79,2.44,3,3,0,0,0,2.28.85,4.32,4.32,0,0,0,2.77-.92Z"/><path class="cls-3" d="M278.5,81.7c1.46,1.45,2.2,3.56,2.2,6.35V99.32h-3.55V88.45a6,6,0,0,0-1.37-4.29,5.15,5.15,0,0,0-3.92-1.44,6.12,6.12,0,0,0-4.55,1.68,6.59,6.59,0,0,0-1.66,4.83V99.32H262.1V79.72h3.4v3a6.93,6.93,0,0,1,2.9-2.33,10.19,10.19,0,0,1,4.16-.81A8.12,8.12,0,0,1,278.5,81.7Z"/><path class="cls-3" d="M305,90.71h-15.9a6.18,6.18,0,0,0,2.27,4.16,7.44,7.44,0,0,0,4.83,1.57,7.27,7.27,0,0,0,5.66-2.37l2,2.3a8.61,8.61,0,0,1-3.31,2.36,11.41,11.41,0,0,1-4.42.82,11.58,11.58,0,0,1-5.51-1.28,9.08,9.08,0,0,1-3.72-3.57,10.28,10.28,0,0,1-1.31-5.18,10.42,10.42,0,0,1,1.27-5.14,9.19,9.19,0,0,1,3.52-3.56,10,10,0,0,1,5.05-1.28,9.83,9.83,0,0,1,5,1.28,9.06,9.06,0,0,1,3.44,3.56,11,11,0,0,1,1.23,5.26A9.89,9.89,0,0,1,305,90.71Zm-13.89-6.62a6.28,6.28,0,0,0-2,4.07H301.7a6.33,6.33,0,0,0-2-4,6.64,6.64,0,0,0-8.55,0Z"/><path class="cls-3" d="M327,79.72l-9.51,21.56a9.73,9.73,0,0,1-2.94,4.22,6.73,6.73,0,0,1-4.05,1.22,8.5,8.5,0,0,1-2.79-.46,5.85,5.85,0,0,1-2.24-1.35l1.52-2.66a4.94,4.94,0,0,0,3.51,1.44,3.38,3.38,0,0,0,2.17-.69,5.86,5.86,0,0,0,1.57-2.34l.63-1.37-8.66-19.57h3.7l6.84,15.69,6.77-15.69Z"/><path class="cls-3" d="M340.79,73.44h3.7V96.11h14v3.21H340.79Z"/><path class="cls-3" d="M379.62,90.71h-15.9A6.18,6.18,0,0,0,366,94.87a7.4,7.4,0,0,0,4.83,1.57,7.25,7.25,0,0,0,5.65-2.37l2,2.3a8.54,8.54,0,0,1-3.31,2.36,11.33,11.33,0,0,1-4.41.82,11.55,11.55,0,0,1-5.51-1.28,9,9,0,0,1-3.72-3.57,10.18,10.18,0,0,1-1.31-5.18,10.42,10.42,0,0,1,1.27-5.14A9.13,9.13,0,0,1,365,80.82a10,10,0,0,1,5-1.28,9.78,9.78,0,0,1,5,1.28,8.93,8.93,0,0,1,3.44,3.56,10.84,10.84,0,0,1,1.24,5.26A9.89,9.89,0,0,1,379.62,90.71Zm-13.89-6.62a6.24,6.24,0,0,0-2,4.07h12.57a6.29,6.29,0,0,0-2-4,6.62,6.62,0,0,0-8.54,0Z"/><path class="cls-3" d="M402.25,90.71h-15.9a6.18,6.18,0,0,0,2.27,4.16,7.42,7.42,0,0,0,4.83,1.57,7.27,7.27,0,0,0,5.66-2.37l2,2.3a8.69,8.69,0,0,1-3.31,2.36,11.41,11.41,0,0,1-4.42.82,11.58,11.58,0,0,1-5.51-1.28,9.08,9.08,0,0,1-3.72-3.57,10.18,10.18,0,0,1-1.31-5.18,10.42,10.42,0,0,1,1.27-5.14,9.13,9.13,0,0,1,3.52-3.56,10,10,0,0,1,5-1.28,9.84,9.84,0,0,1,5,1.28,9,9,0,0,1,3.43,3.56,10.84,10.84,0,0,1,1.24,5.26A9.89,9.89,0,0,1,402.25,90.71Zm-13.89-6.62a6.24,6.24,0,0,0-2,4.07h12.57a6.33,6.33,0,0,0-2-4,6.64,6.64,0,0,0-8.55,0Z"/></g><g class="cls-1"><path class="cls-4" d="M161.72,97.9a12.6,12.6,0,0,1-4.9-4.73,13.82,13.82,0,0,1,0-13.57,12.61,12.61,0,0,1,4.92-4.74,14.42,14.42,0,0,1,7-1.72,14.66,14.66,0,0,1,5.55,1,11.48,11.48,0,0,1,4.29,3l-2.41,2.33a9.64,9.64,0,0,0-7.28-3.07,10.57,10.57,0,0,0-5.21,1.3,9.35,9.35,0,0,0-3.65,3.57,10.52,10.52,0,0,0,0,10.17A9.39,9.39,0,0,0,163.7,95a10.46,10.46,0,0,0,5.21,1.3,9.66,9.66,0,0,0,7.28-3.11l2.41,2.33a11.7,11.7,0,0,1-4.31,3,14.57,14.57,0,0,1-5.57,1A14.24,14.24,0,0,1,161.72,97.9Z"/><path class="cls-4" d="M185.7,98.25a9.32,9.32,0,0,1-3.64-3.57,10.73,10.73,0,0,1,0-10.31,9.21,9.21,0,0,1,3.64-3.55,11.37,11.37,0,0,1,10.48,0,9.31,9.31,0,0,1,3.63,3.55,10.8,10.8,0,0,1,0,10.31,9.43,9.43,0,0,1-3.63,3.57,11.21,11.21,0,0,1-10.48,0Zm8.63-2.68a6.14,6.14,0,0,0,2.35-2.44,8.07,8.07,0,0,0,0-7.21,6,6,0,0,0-2.35-2.42,7.15,7.15,0,0,0-6.76,0,6.07,6.07,0,0,0-2.37,2.42,7.9,7.9,0,0,0,0,7.21,6.25,6.25,0,0,0,2.37,2.44,7,7,0,0,0,6.76,0Z"/><path class="cls-4" d="M224.3,79.72v19.6h-3.36V96.37a7.13,7.13,0,0,1-2.83,2.34,8.77,8.77,0,0,1-3.83.84,8.55,8.55,0,0,1-6.17-2.17q-2.27-2.16-2.26-6.38V79.72h3.55V90.6a6.11,6.11,0,0,0,1.37,4.31,5.12,5.12,0,0,0,3.92,1.46,5.85,5.85,0,0,0,4.44-1.71,6.67,6.67,0,0,0,1.62-4.8V79.72Z"/><path class="cls-4" d="M237.21,80.43a10,10,0,0,1,4.4-.89V83a8,8,0,0,0-.81,0,6,6,0,0,0-4.53,1.72,6.8,6.8,0,0,0-1.65,4.9v9.76h-3.55V79.72h3.4V83A6,6,0,0,1,237.21,80.43Z"/><path class="cls-4" d="M257.81,98.18a5.28,5.28,0,0,1-1.93,1,7.81,7.81,0,0,1-2.36.36A6.31,6.31,0,0,1,248.93,98a6.09,6.09,0,0,1-1.62-4.55V82.65H244V79.72h3.33V75.44h3.55v4.28h5.62v2.93h-5.62V93.26a3.45,3.45,0,0,0,.79,2.44,3,3,0,0,0,2.28.85,4.32,4.32,0,0,0,2.77-.92Z"/><path class="cls-4" d="M278.5,81.7c1.46,1.45,2.2,3.56,2.2,6.35V99.32h-3.55V88.45a6,6,0,0,0-1.37-4.29,5.15,5.15,0,0,0-3.92-1.44,6.12,6.12,0,0,0-4.55,1.68,6.59,6.59,0,0,0-1.66,4.83V99.32H262.1V79.72h3.4v3a6.93,6.93,0,0,1,2.9-2.33,10.19,10.19,0,0,1,4.16-.81A8.12,8.12,0,0,1,278.5,81.7Z"/><path class="cls-4" d="M305,90.71h-15.9a6.18,6.18,0,0,0,2.27,4.16,7.44,7.44,0,0,0,4.83,1.57,7.27,7.27,0,0,0,5.66-2.37l2,2.3a8.61,8.61,0,0,1-3.31,2.36,11.41,11.41,0,0,1-4.42.82,11.58,11.58,0,0,1-5.51-1.28,9.08,9.08,0,0,1-3.72-3.57,10.28,10.28,0,0,1-1.31-5.18,10.42,10.42,0,0,1,1.27-5.14,9.19,9.19,0,0,1,3.52-3.56,10,10,0,0,1,5.05-1.28,9.83,9.83,0,0,1,5,1.28,9.06,9.06,0,0,1,3.44,3.56,11,11,0,0,1,1.23,5.26A9.89,9.89,0,0,1,305,90.71Zm-13.89-6.62a6.28,6.28,0,0,0-2,4.07H301.7a6.33,6.33,0,0,0-2-4,6.64,6.64,0,0,0-8.55,0Z"/><path class="cls-4" d="M327,79.72l-9.51,21.56a9.73,9.73,0,0,1-2.94,4.22,6.73,6.73,0,0,1-4.05,1.22,8.5,8.5,0,0,1-2.79-.46,5.85,5.85,0,0,1-2.24-1.35l1.52-2.66a4.94,4.94,0,0,0,3.51,1.44,3.38,3.38,0,0,0,2.17-.69,5.86,5.86,0,0,0,1.57-2.34l.63-1.37-8.66-19.57h3.7l6.84,15.69,6.77-15.69Z"/><path class="cls-4" d="M340.79,73.44h3.7V96.11h14v3.21H340.79Z"/><path class="cls-4" d="M379.62,90.71h-15.9A6.18,6.18,0,0,0,366,94.87a7.4,7.4,0,0,0,4.83,1.57,7.25,7.25,0,0,0,5.65-2.37l2,2.3a8.54,8.54,0,0,1-3.31,2.36,11.33,11.33,0,0,1-4.41.82,11.55,11.55,0,0,1-5.51-1.28,9,9,0,0,1-3.72-3.57,10.18,10.18,0,0,1-1.31-5.18,10.42,10.42,0,0,1,1.27-5.14A9.13,9.13,0,0,1,365,80.82a10,10,0,0,1,5-1.28,9.78,9.78,0,0,1,5,1.28,8.93,8.93,0,0,1,3.44,3.56,10.84,10.84,0,0,1,1.24,5.26A9.89,9.89,0,0,1,379.62,90.71Zm-13.89-6.62a6.24,6.24,0,0,0-2,4.07h12.57a6.29,6.29,0,0,0-2-4,6.62,6.62,0,0,0-8.54,0Z"/><path class="cls-4" d="M402.25,90.71h-15.9a6.18,6.18,0,0,0,2.27,4.16,7.42,7.42,0,0,0,4.83,1.57,7.27,7.27,0,0,0,5.66-2.37l2,2.3a8.69,8.69,0,0,1-3.31,2.36,11.41,11.41,0,0,1-4.42.82,11.58,11.58,0,0,1-5.51-1.28,9.08,9.08,0,0,1-3.72-3.57,10.18,10.18,0,0,1-1.31-5.18,10.42,10.42,0,0,1,1.27-5.14,9.13,9.13,0,0,1,3.52-3.56,10,10,0,0,1,5-1.28,9.84,9.84,0,0,1,5,1.28,9,9,0,0,1,3.43,3.56,10.84,10.84,0,0,1,1.24,5.26A9.89,9.89,0,0,1,402.25,90.71Zm-13.89-6.62a6.24,6.24,0,0,0-2,4.07h12.57a6.33,6.33,0,0,0-2-4,6.64,6.64,0,0,0-8.55,0Z"/></g></g><path class="cls-5" d="M110.25,131a40.18,40.18,0,1,1,10.23-79.21c1.24.3,2.47.67,3.68,1.09.76.26,2.42.44,2.74,1.33s-.45,1.55-.81,2.14a23.9,23.9,0,0,0-1.2,2.62,9.11,9.11,0,0,1-.87,2.18c-.72.91-1.76-.15-2.56-.43a31.88,31.88,0,1,0-.87,60.52c3-1,5.79-2.74,8.57-4.27a.6.6,0,0,1,.31-.1.54.54,0,0,1,.32.23c1,1.17,1.86,2.42,2.8,3.64.52.69,1.78,1.86,1.68,2.82-.14,1.24-4.79,2.82-5.79,3.28a45.84,45.84,0,0,1-5.14,2.23A40.37,40.37,0,0,1,110.25,131Z"/><rect class="cls-5" x="65.83" y="111.76" width="2.3" height="12.95" rx="0.96" transform="translate(124.76 -4.76) rotate(54.69)"/><rect class="cls-5" x="70.12" y="51.82" width="2.3" height="12.95" rx="0.96" transform="translate(158.91 30.05) rotate(122.85)"/><rect class="cls-5" x="95.96" y="36.47" width="2.3" height="12.95" rx="0.96" transform="translate(203.26 45.69) rotate(157.63)"/><rect class="cls-5" x="126.91" y="36.47" width="2.3" height="12.95" rx="1.15" transform="translate(231.82 129.42) rotate(-158.73)"/><path class="cls-5" d="M122.18,109.35c-.32-.49-.85-.48-1.47-.5-.4,0-.9,0-1.29.06L118,109l-4.22.21-4.91.23-4.17.2-1.66.08L120.24,65.4a1.51,1.51,0,0,0-.85-1.7,1.46,1.46,0,0,0-1.76.6l-17.61,46a1.14,1.14,0,0,0,0,.73s0,.09,0,.14a1.31,1.31,0,0,0,1.37,1.24l1.26-.06,3.2-.16L110,112l4.31-.21c1.12-.06,2.24-.14,3.37-.19.76,0,1.66,0,2.4,0s1.67.12,2.1-.73A1.23,1.23,0,0,0,122.18,109.35Z"/><rect class="cls-5" x="89.65" y="131" width="2.3" height="12.95" rx="1.15" transform="translate(125.53 298.52) rotate(-158.73)"/><rect class="cls-5" x="127.68" y="132.16" width="2.3" height="12.95" rx="0.96" transform="translate(-43.07 59.47) rotate(-22.37)"/><rect class="cls-5" x="58.55" y="83.17" width="2.3" height="12.95" rx="0.96" transform="translate(149.34 29.95) rotate(90)"/><path class="cls-3" d="M118.45,106.09c-.31-.5-.85-.49-1.47-.5-.39,0-.9,0-1.28,0l-1.4.07-4.23.2-4.91.24-4.17.2-1.65.08,17.17-44.3a1.5,1.5,0,0,0-.85-1.7,1.45,1.45,0,0,0-1.76.61L96.29,107a1.18,1.18,0,0,0,0,.72c0,.05,0,.09,0,.14a1.31,1.31,0,0,0,1.37,1.24l1.27-.06,3.19-.15,4.21-.2,4.31-.21,3.37-.2c.77,0,1.66,0,2.41,0s1.67.12,2.09-.73A1.2,1.2,0,0,0,118.45,106.09Z"/><rect class="cls-3" x="92.24" y="33.2" width="2.3" height="12.95" rx="0.96" transform="translate(194.85 40.83) rotate(157.63)"/><rect class="cls-3" x="123.19" y="33.2" width="2.3" height="12.95" rx="1.15" transform="translate(225.81 121.76) rotate(-158.73)"/><rect class="cls-3" x="123.96" y="128.89" width="2.3" height="12.95" rx="0.96" transform="translate(-42.11 57.81) rotate(-22.37)"/><rect class="cls-3" x="85.92" y="127.73" width="2.3" height="12.95" rx="1.15" transform="translate(119.51 290.86) rotate(-158.73)"/><rect class="cls-3" x="62.11" y="108.49" width="2.3" height="12.95" rx="0.96" transform="translate(120.52 -3.1) rotate(54.69)"/><rect class="cls-3" x="66.39" y="48.55" width="2.3" height="12.95" rx="0.96" transform="translate(150.41 28.14) rotate(122.85)"/><path class="cls-3" d="M106.52,127.71a40.18,40.18,0,1,1,2.75-80.3,41.11,41.11,0,0,1,7.49,1.08c1.24.31,2.46.67,3.67,1.09.76.27,2.43.44,2.74,1.34s-.44,1.54-.8,2.14a22,22,0,0,0-1.2,2.61,9.47,9.47,0,0,1-.88,2.19c-.71.9-1.75-.16-2.56-.44a31.89,31.89,0,1,0-11.07,62,32.12,32.12,0,0,0,10.21-1.47c3-1,5.78-2.74,8.56-4.27a.54.54,0,0,1,.32-.09.51.51,0,0,1,.32.23c1,1.17,1.86,2.42,2.79,3.63.53.69,1.79,1.86,1.68,2.82-.14,1.25-4.79,2.83-5.79,3.29a47.69,47.69,0,0,1-5.14,2.22A40.38,40.38,0,0,1,106.52,127.71Z"/><rect class="cls-3" x="54.82" y="79.9" width="2.3" height="12.95" rx="0.96" transform="translate(142.35 30.41) rotate(90)"/></g></svg>