<?xml version="1.0" encoding="utf-8"?>
<!-- Generator: Adobe Illustrator 25.0.0, SVG Export Plug-In . SVG Version: 6.00 Build 0)  -->
<svg version="1.1" id="Layer_1" xmlns="http://www.w3.org/2000/svg" xmlns:xlink="http://www.w3.org/1999/xlink" x="0px" y="0px"
	 viewBox="0 0 1224 936" style="enable-background:new 0 0 1224 936;" xml:space="preserve">
<style type="text/css">
	.st0{display:none;}
	.st1{display:inline;fill:none;stroke:#000000;stroke-width:2.658;stroke-miterlimit:10;}
	.st2{display:inline;fill:none;stroke:#000000;stroke-width:2.7577;stroke-miterlimit:10;}
	.st3{fill:#FCFC8F;}
	.st4{fill:#FAE095;}
	.st5{font-family:'Montserrat-SemiBold';}
	.st6{font-size:60px;}
	.st7{fill:none;}
	.st8{font-size:24px;}
	.st9{font-size:21px;}
</style>
<text transform="matrix(1 0 0 1 1028.4014 64.8684)" class="st5 st6">HEAR</text>
<rect x="100.23" y="175.37" class="st3" width="216" height="216"/>
<rect x="112.35" y="206.58" class="st7" width="203.88" height="142.2"/>
<text transform="matrix(1 0 0 1 112.3459 224.3875)"><tspan x="0" y="0" class="st5 st8">Can hear </tspan><tspan x="0" y="28.8" class="st5 st8">willingness to </tspan><tspan x="0" y="57.6" class="st5 st8">help in tone + </tspan><tspan x="0" y="86.4" class="st5 st8">attitude</tspan></text>
<rect x="369" y="175.37" class="st3" width="216" height="216"/>
<rect x="381.12" y="204.01" class="st7" width="203.88" height="130.37"/>
<text transform="matrix(1 0 0 1 381.1193 221.8182)"><tspan x="0" y="0" class="st5 st8">People given </tspan><tspan x="0" y="28.8" class="st5 st8">her recognition </tspan><tspan x="0" y="57.6" class="st5 st8">from being in </tspan><tspan x="0" y="86.4" class="st5 st8">ASL video </tspan></text>
<rect x="624.66" y="175.37" class="st3" width="216" height="216"/>
<rect x="637.47" y="196.36" class="st7" width="203.88" height="236.72"/>
<text transform="matrix(1 0 0 1 637.4645 211.9404)"><tspan x="0" y="0" class="st5 st9">Hiring manger </tspan><tspan x="0" y="25.2" class="st5 st9">said “I see you in a </tspan><tspan x="0" y="50.4" class="st5 st9">wheelchair and </tspan><tspan x="0" y="75.6" class="st5 st9">had to </tspan><tspan x="0" y="100.8" class="st5 st9">automatically </tspan><tspan x="0" y="126" class="st5 st9">deny your </tspan><tspan x="0" y="151.2" class="st5 st9">application” </tspan></text>
<rect x="866.81" y="175.37" class="st3" width="216" height="216"/>
<rect x="878.93" y="200.18" class="st7" width="203.88" height="229.07"/>
<text transform="matrix(1 0 0 1 878.9301 215.7663)"><tspan x="0" y="0" class="st5 st9">When an </tspan><tspan x="0" y="25.2" class="st5 st9">employer sees </tspan><tspan x="0" y="50.4" class="st5 st9">that an applicant </tspan><tspan x="0" y="75.6" class="st5 st9">is disabled --&gt; </tspan><tspan x="0" y="100.8" class="st5 st9">Company views </tspan><tspan x="0" y="126" class="st5 st9">them as a liability </tspan></text>
</svg>
