<?xml version="1.0" encoding="utf-8"?>
<!-- Generator: Adobe Illustrator 25.0.0, SVG Export Plug-In . SVG Version: 6.00 Build 0)  -->
<svg version="1.1" id="Layer_1" xmlns="http://www.w3.org/2000/svg" xmlns:xlink="http://www.w3.org/1999/xlink" x="0px" y="0px"
	 viewBox="0 0 1224 936" style="enable-background:new 0 0 1224 936;" xml:space="preserve">
<style type="text/css">
	.st0{display:none;}
	.st1{display:inline;fill:none;stroke:#000000;stroke-width:2.658;stroke-miterlimit:10;}
	.st2{display:inline;fill:none;stroke:#000000;stroke-width:2.7577;stroke-miterlimit:10;}
	.st3{fill:#FCFC8F;}
	.st4{fill:#FAE095;}
	.st5{font-family:'Montserrat-SemiBold';}
	.st6{font-size:60px;}
	.st7{fill:none;}
	.st8{font-size:28px;}
	.st9{font-size:24px;}
	.st10{font-size:21px;}
</style>
<text transform="matrix(1 0 0 1 20.1987 64.8681)" class="st5 st6">SAY &amp; DO</text>
<rect x="100.23" y="175.37" class="st3" width="216" height="216"/>
<rect x="112.35" y="206.58" class="st7" width="203.88" height="142.2"/>
<text transform="matrix(1 0 0 1 112.3458 227.3558)"><tspan x="0" y="0" class="st5 st8">Improve </tspan><tspan x="0" y="33.6" class="st5 st8">onboarding </tspan><tspan x="0" y="67.2" class="st5 st8">experience </tspan></text>
<rect x="369" y="175.37" class="st3" width="216" height="216"/>
<rect x="381.12" y="204.01" class="st7" width="203.88" height="169.68"/>
<text transform="matrix(1 0 0 1 381.1183 221.8182)"><tspan x="0" y="0" class="st5 st9">Have managers </tspan><tspan x="0" y="28.8" class="st5 st9">be more </tspan><tspan x="0" y="57.6" class="st5 st9">involved in </tspan><tspan x="0" y="86.4" class="st5 st9">onboarding </tspan><tspan x="0" y="115.2" class="st5 st9">process</tspan></text>
<rect x="624.66" y="175.37" class="st3" width="216" height="216"/>
<rect x="637.47" y="196.36" class="st7" width="203.88" height="236.72"/>
<text transform="matrix(1 0 0 1 637.4645 214.1664)"><tspan x="0" y="0" class="st5 st9">“I have </tspan><tspan x="0" y="28.8" class="st5 st9">challenges </tspan><tspan x="0" y="57.6" class="st5 st9">because I am </tspan><tspan x="0" y="86.4" class="st5 st9">deaf in a loud </tspan><tspan x="0" y="115.2" class="st5 st9">environment” </tspan></text>
<rect x="866.81" y="175.37" class="st3" width="216" height="216"/>
<rect x="878.93" y="200.18" class="st7" width="203.88" height="229.07"/>
<text transform="matrix(1 0 0 1 878.9301 217.9924)"><tspan x="0" y="0" class="st5 st9">Finds </tspan><tspan x="0" y="28.8" class="st5 st9">expressing </tspan><tspan x="0" y="57.6" class="st5 st9">needs + wants </tspan><tspan x="0" y="86.4" class="st5 st9">and being open </tspan><tspan x="0" y="115.2" class="st5 st9">beneficials </tspan></text>
<rect x="100.23" y="413.04" class="st3" width="216" height="216"/>
<rect x="112.35" y="437.86" class="st7" width="203.88" height="229.07"/>
<text transform="matrix(1 0 0 1 112.3459 458.6314)"><tspan x="0" y="0" class="st5 st8">“The more </tspan><tspan x="0" y="33.6" class="st5 st8">comfortable I </tspan><tspan x="0" y="67.2" class="st5 st8">feel, the more </tspan><tspan x="0" y="100.8" class="st5 st8">open I’ll be”</tspan></text>
<rect x="368" y="417.32" class="st3" width="216" height="216"/>
<rect x="380.12" y="442.13" class="st7" width="203.88" height="229.07"/>
<text transform="matrix(1 0 0 1 380.1175 462.9088)"><tspan x="0" y="0" class="st5 st8">Was planning </tspan><tspan x="0" y="33.6" class="st5 st8">to stay at </tspan><tspan x="0" y="67.2" class="st5 st8">company for </tspan><tspan x="0" y="100.8" class="st5 st8">about a year </tspan></text>
<rect x="624.66" y="417.32" class="st3" width="216" height="216"/>
<rect x="634.08" y="442.13" class="st7" width="199.83" height="229.07"/>
<text transform="matrix(1 0 0 1 634.0834 457.7139)"><tspan x="0" y="0" class="st5 st10">Older generation </tspan><tspan x="0" y="25.2" class="st5 st10">is not as open to </tspan><tspan x="0" y="50.4" class="st5 st10">accommodations</tspan></text>
<rect x="866.81" y="417.32" class="st3" width="216" height="216"/>
<rect x="876.24" y="442.13" class="st7" width="199.83" height="229.07"/>
<text transform="matrix(1 0 0 1 876.2391 457.7139)"><tspan x="0" y="0" class="st5 st10">“I flew under the </tspan><tspan x="0" y="25.2" class="st5 st10">radar until ERG”</tspan></text>
<rect x="100.23" y="650.71" class="st3" width="216" height="216"/>
<rect x="109.65" y="675.53" class="st7" width="199.83" height="229.07"/>
<text transform="matrix(1 0 0 1 109.6549 691.1072)"><tspan x="0" y="0" class="st5 st10">“Human nature </tspan><tspan x="0" y="25.2" class="st5 st10">makes us avoid </tspan><tspan x="0" y="50.4" class="st5 st10">uncomfortable </tspan><tspan x="0" y="75.6" class="st5 st10">situations”</tspan></text>
<rect x="368" y="650.71" class="st3" width="216" height="216"/>
<rect x="377.43" y="675.53" class="st7" width="199.83" height="229.07"/>
<text transform="matrix(1 0 0 1 377.4265 691.1072)"><tspan x="0" y="0" class="st5 st10">Doesn’t want to </tspan><tspan x="0" y="25.2" class="st5 st10">be known as the </tspan><tspan x="0" y="50.4" class="st5 st10">“deaf girl”</tspan></text>
</svg>
