<?xml version="1.0" encoding="utf-8"?>
<!-- Generator: Adobe Illustrator 25.0.0, SVG Export Plug-In . SVG Version: 6.00 Build 0)  -->
<svg version="1.1" id="Layer_1" xmlns="http://www.w3.org/2000/svg" xmlns:xlink="http://www.w3.org/1999/xlink" x="0px" y="0px"
	 viewBox="0 0 1224 936" style="enable-background:new 0 0 1224 936;" xml:space="preserve">
<style type="text/css">
	.st0{display:none;}
	.st1{display:inline;fill:none;stroke:#000000;stroke-width:2.658;stroke-miterlimit:10;}
	.st2{display:inline;fill:none;stroke:#000000;stroke-width:2.7577;stroke-miterlimit:10;}
	.st3{fill:#FCFC8F;}
	.st4{fill:#FAE095;}
	.st5{font-family:'Montserrat-SemiBold';}
	.st6{font-size:60px;}
	.st7{fill:none;}
	.st8{font-size:24px;}
	.st9{font-size:21px;}
</style>
<text transform="matrix(1 0 0 1 23.1483 898.1898)" class="st5 st6">SEE</text>
<rect x="100.23" y="74.29" class="st3" width="216" height="216"/>
<rect x="112.35" y="105.5" class="st7" width="203.88" height="163.41"/>
<text transform="matrix(1 0 0 1 112.3456 123.307)"><tspan x="0" y="0" class="st5 st8">Sees the </tspan><tspan x="0" y="28.8" class="st5 st8">direction </tspan><tspan x="0" y="57.6" class="st5 st8">elevators are </tspan><tspan x="0" y="86.4" class="st5 st8">going via lights </tspan><tspan x="0" y="115.2" class="st5 st8">w/arrows</tspan></text>
<rect x="369" y="74.29" class="st3" width="216" height="216"/>
<rect x="381.12" y="102.93" class="st7" width="203.88" height="130.37"/>
<text transform="matrix(1 0 0 1 381.1189 120.7369)"><tspan x="0" y="0" class="st5 st8">Team helped </tspan><tspan x="0" y="28.8" class="st5 st8">getting mini </tspan><tspan x="0" y="57.6" class="st5 st8">keyboard </tspan></text>
<rect x="624.66" y="74.29" class="st3" width="216" height="216"/>
<rect x="636.77" y="102.93" class="st7" width="203.88" height="179.32"/>
<text transform="matrix(1 0 0 1 636.7742 118.5108)"><tspan x="0" y="0" class="st5 st9">Onboarding links </tspan><tspan x="0" y="25.2" class="st5 st9">on internal </tspan><tspan x="0" y="50.4" class="st5 st9">website are old, </tspan><tspan x="0" y="75.6" class="st5 st9">causing a mess</tspan></text>
</svg>
