<?xml version="1.0" encoding="utf-8"?>
<!-- Generator: Adobe Illustrator 25.0.0, SVG Export Plug-In . SVG Version: 6.00 Build 0)  -->
<svg version="1.1" id="Layer_1" xmlns="http://www.w3.org/2000/svg" xmlns:xlink="http://www.w3.org/1999/xlink" x="0px" y="0px"
	 viewBox="0 0 1224 936" style="enable-background:new 0 0 1224 936;" xml:space="preserve">
<style type="text/css">
	.st0{display:none;}
	.st1{display:inline;fill:none;stroke:#000000;stroke-width:2.658;stroke-miterlimit:10;}
	.st2{display:inline;fill:none;stroke:#000000;stroke-width:2.7577;stroke-miterlimit:10;}
	.st3{font-family:'Montserrat-SemiBold';}
	.st4{font-size:60px;}
	.st5{fill:#FCFC8F;}
	.st6{fill:none;}
	.st7{font-size:24px;}
	.st8{font-size:21px;}
	.st9{fill:#FAE095;}
	.st10{font-size:14px;}
	.st11{font-size:18px;}
</style>
<g class="st0">
	<line class="st1" x1="612.03" y1="173.59" x2="612.03" y2="898.19"/>
	<line class="st2" x1="18" y1="519.4" x2="1206" y2="519.4"/>
</g>
<text transform="matrix(1 0 0 1 770.386 898.1895)" class="st3 st4">THINK &amp; FEEL </text>
<rect x="100.23" y="74.29" class="st5" width="216" height="216"/>
<rect x="112.35" y="105.5" class="st6" width="203.88" height="73.38"/>
<text transform="matrix(1 0 0 1 112.3467 123.3066)"><tspan x="0" y="0" class="st3 st7">Awkward with </tspan><tspan x="0" y="28.8" class="st3 st7">self advocating</tspan></text>
<rect x="369" y="74.29" class="st5" width="216" height="216"/>
<rect x="381.12" y="102.93" class="st6" width="203.88" height="130.37"/>
<text transform="matrix(1 0 0 1 381.1191 120.7368)"><tspan x="0" y="0" class="st3 st7">Thought </tspan><tspan x="0" y="28.8" class="st3 st7">orientation was </tspan><tspan x="0" y="57.6" class="st3 st7">mundane</tspan></text>
<rect x="624.66" y="74.29" class="st5" width="216" height="216"/>
<rect x="636.77" y="102.93" class="st6" width="203.88" height="130.37"/>
<text transform="matrix(1 0 0 1 636.7751 120.7368)"><tspan x="0" y="0" class="st3 st7">Overwhelmed </tspan><tspan x="0" y="28.8" class="st3 st7">with work + </tspan><tspan x="0" y="57.6" class="st3 st7">orientation </tspan></text>
<rect x="866.81" y="74.29" class="st5" width="216" height="216"/>
<rect x="878.93" y="102.93" class="st6" width="203.88" height="130.37"/>
<text transform="matrix(1 0 0 1 878.9308 120.7368)"><tspan x="0" y="0" class="st3 st7">There’s a lot of </tspan><tspan x="0" y="28.8" class="st3 st7">internal tools </tspan><tspan x="0" y="57.6" class="st3 st7">used within the </tspan><tspan x="0" y="86.4" class="st3 st7">company </tspan></text>
<rect x="100.23" y="344.47" class="st5" width="216" height="216"/>
<rect x="112.35" y="373.11" class="st6" width="203.88" height="167.09"/>
<text transform="matrix(1 0 0 1 112.3466 390.9226)"><tspan x="0" y="0" class="st3 st7">Helps </tspan><tspan x="0" y="28.8" class="st3 st7">applicants + </tspan><tspan x="0" y="57.6" class="st3 st7">managers </tspan><tspan x="0" y="86.4" class="st3 st7">adjust workers </tspan><tspan x="0" y="115.2" class="st3 st7">with Asperger’s</tspan></text>
<rect x="369" y="344.47" class="st5" width="216" height="216"/>
<rect x="381.12" y="373.11" class="st6" width="203.88" height="167.09"/>
<text transform="matrix(1 0 0 1 381.119 390.9226)"><tspan x="0" y="0" class="st3 st7">Feels out of </tspan><tspan x="0" y="28.8" class="st3 st7">place at parties </tspan></text>
<rect x="625.71" y="344.47" class="st5" width="216" height="216"/>
<rect x="640.83" y="373.11" class="st6" width="203.88" height="167.09"/>
<text transform="matrix(1 0 0 1 640.8314 390.9226)"><tspan x="0" y="0" class="st3 st7">Does not want </tspan><tspan x="0" y="28.8" class="st3 st7">to “rock the </tspan><tspan x="0" y="57.6" class="st3 st7">boat”/cause </tspan><tspan x="0" y="86.4" class="st3 st7">conflict </tspan></text>
<rect x="865.31" y="348.66" class="st5" width="216" height="216"/>
<rect x="880.43" y="377.3" class="st6" width="203.88" height="167.09"/>
<text transform="matrix(1 0 0 1 880.4321 395.1086)"><tspan x="0" y="0" class="st3 st7">Gets nervous </tspan><tspan x="0" y="28.8" class="st3 st7">disclosing her </tspan><tspan x="0" y="57.6" class="st3 st7">disability </tspan></text>
<rect x="98.73" y="594.64" class="st5" width="216" height="216"/>
<rect x="113.85" y="623.28" class="st6" width="203.88" height="167.09"/>
<text transform="matrix(1 0 0 1 113.8479 641.0919)"><tspan x="0" y="0" class="st3 st7">Comfortable </tspan><tspan x="0" y="28.8" class="st3 st7">w/not knowing </tspan><tspan x="0" y="57.6" class="st3 st7">something; </tspan><tspan x="0" y="86.4" class="st3 st7">people are </tspan><tspan x="0" y="115.2" class="st3 st7">willing to help</tspan></text>
<rect x="367.5" y="594.64" class="st5" width="216" height="216"/>
<rect x="382.62" y="623.28" class="st6" width="203.88" height="167.09"/>
<text transform="matrix(1 0 0 1 382.6203 638.8658)"><tspan x="0" y="0" class="st3 st8">Doesn’t like when </tspan><tspan x="0" y="25.2" class="st3 st8">people don’t like </tspan><tspan x="0" y="50.4" class="st3 st8">her due to </tspan><tspan x="0" y="75.6" class="st3 st8">something out of </tspan><tspan x="0" y="100.8" class="st3 st8">her control (her </tspan><tspan x="0" y="126" class="st3 st8">disability)</tspan></text>
<rect x="624.21" y="594.64" class="st5" width="216" height="216"/>
<rect x="639.33" y="623.28" class="st6" width="203.88" height="167.09"/>
<text transform="matrix(1 0 0 1 639.3303 641.0919)"><tspan x="0" y="0" class="st3 st7">Wished people </tspan><tspan x="0" y="28.8" class="st3 st7">would put more </tspan><tspan x="0" y="57.6" class="st3 st7">effort into </tspan><tspan x="0" y="86.4" class="st3 st7">understanding </tspan><tspan x="0" y="115.2" class="st3 st7">a deaf person </tspan></text>
<circle class="st9" cx="798.64" cy="254.88" r="78.68"/>
<rect x="742.77" y="204.25" class="st6" width="118.3" height="129.31"/>
<text transform="matrix(1 0 0 1 745.0216 214.6372)"><tspan x="0" y="0" class="st3 st10">associate chose </tspan><tspan x="23.71" y="16.8" class="st3 st10">cheapest </tspan><tspan x="18.11" y="33.6" class="st3 st10">healthcare </tspan><tspan x="4.39" y="50.4" class="st3 st10">option bc they </tspan><tspan x="7.9" y="67.2" class="st3 st10">didn’t think it </tspan><tspan x="18.03" y="84" class="st3 st10">was a high </tspan><tspan x="30.65" y="100.8" class="st3 st10">priority </tspan></text>
<circle class="st9" cx="1090.84" cy="260.97" r="78.68"/>
<rect x="1031.69" y="225.63" class="st6" width="118.3" height="129.31"/>
<text transform="matrix(1 0 0 1 1077.4614 238.9897)"><tspan x="0" y="0" class="st3 st11">Ex. </tspan><tspan x="-41.97" y="21.6" class="st3 st11">Confluence, </tspan><tspan x="-22.53" y="43.2" class="st3 st11">Jira, etc</tspan></text>
</svg>
